<svg width="88" height="121" viewBox="0 0 88 121" fill="none" xmlns="http://www.w3.org/2000/svg">
<path d="M9.344 104V19.52H50.432C60.8427 19.6053 68.5227 21.6107 73.472 25.536C78.4213 29.376 80.896 34.9653 80.896 42.304C80.896 47.0827 79.488 51.2213 76.672 54.72C73.856 58.1333 69.5467 60.3093 63.744 61.248V61.376C70.2293 62.2293 75.0507 64.4907 78.208 68.16C81.4507 71.744 83.072 76.096 83.072 81.216C83.072 88.4693 80.512 94.1013 75.392 98.112C70.272 102.037 62.592 104 52.352 104H9.344ZM30.592 88.512H48.64C52.6507 88.512 55.6373 87.7013 57.6 86.08C59.5627 84.4587 60.544 82.112 60.544 79.04C60.544 76.0533 59.5627 73.792 57.6 72.256C55.6373 70.6347 52.6507 69.824 48.64 69.824H30.592V88.512ZM30.592 54.08H46.592C54.4427 54.08 58.368 51.008 58.368 44.864C58.368 38.72 54.4427 35.648 46.592 35.648H30.592V54.08Z" fill="#00FF75"/>
<path d="M9.344 104H8.344V105H9.344V104ZM9.344 19.52V18.52H8.344V19.52H9.344ZM50.432 19.52L50.4402 18.52H50.432V19.52ZM73.472 25.536L72.8506 26.3195L72.859 26.3261L73.472 25.536ZM76.672 54.72L77.4434 55.3564L77.451 55.347L76.672 54.72ZM63.744 61.248L63.5843 60.2608L62.744 60.3968V61.248H63.744ZM63.744 61.376H62.744V62.253L63.6135 62.3675L63.744 61.376ZM78.208 68.16L77.45 68.8122L77.4581 68.8217L77.4665 68.8309L78.208 68.16ZM75.392 98.112L76.0005 98.9056L76.0087 98.8992L75.392 98.112ZM30.592 88.512H29.592V89.512H30.592V88.512ZM57.6 86.08L58.2369 86.851L58.2369 86.851L57.6 86.08ZM57.6 72.256L56.9631 73.027L56.9733 73.0354L56.9837 73.0435L57.6 72.256ZM30.592 69.824V68.824H29.592V69.824H30.592ZM30.592 54.08H29.592V55.08H30.592V54.08ZM30.592 35.648V34.648H29.592V35.648H30.592ZM10.344 104V19.52H8.344V104H10.344ZM9.344 20.52H50.432V18.52H9.344V20.52ZM50.4238 20.52C60.7443 20.6046 68.1572 22.5971 72.8506 26.3195L74.0934 24.7525C68.8882 20.6242 60.941 18.6061 50.4402 18.52L50.4238 20.52ZM72.859 26.3261C77.5206 29.9429 79.896 35.2147 79.896 42.304H81.896C81.896 34.716 79.322 28.8091 74.085 24.7459L72.859 26.3261ZM79.896 42.304C79.896 46.8703 78.5564 50.7839 75.893 54.093L77.451 55.347C80.4196 51.6588 81.896 47.2951 81.896 42.304H79.896ZM75.9006 54.0836C73.2839 57.2554 69.2272 59.348 63.5843 60.2608L63.9037 62.2352C69.8662 61.2706 74.4281 59.0112 77.4434 55.3564L75.9006 54.0836ZM62.744 61.248V61.376H64.744V61.248H62.744ZM63.6135 62.3675C69.9417 63.2001 74.5021 65.3863 77.45 68.8122L78.966 67.5078C75.5993 63.595 70.517 61.2586 63.8745 60.3845L63.6135 62.3675ZM77.4665 68.8309C80.5323 72.2195 82.072 76.3279 82.072 81.216H84.072C84.072 75.8641 82.369 71.2685 78.9495 67.4891L77.4665 68.8309ZM82.072 81.216C82.072 88.2024 79.6232 93.5272 74.7753 97.3248L76.0087 98.8992C81.4008 94.6754 84.072 88.7363 84.072 81.216H82.072ZM74.7836 97.3184C69.9142 101.052 62.4923 103 52.352 103V105C62.6917 105 70.6298 103.023 76.0004 98.9056L74.7836 97.3184ZM52.352 103H9.344V105H52.352V103ZM30.592 89.512H48.64V87.512H30.592V89.512ZM48.64 89.512C52.757 89.512 56.0173 88.6846 58.2369 86.851L56.9631 85.309C55.2574 86.7181 52.5444 87.512 48.64 87.512V89.512ZM58.2369 86.851C60.4773 85.0002 61.544 82.3423 61.544 79.04H59.544C59.544 81.8817 58.6481 83.9171 56.9631 85.309L58.2369 86.851ZM61.544 79.04C61.544 75.8139 60.4702 73.2324 58.2163 71.4685L56.9837 73.0435C58.6552 74.3516 59.544 76.2928 59.544 79.04H61.544ZM58.2369 71.485C56.0173 69.6514 52.757 68.824 48.64 68.824V70.824C52.5444 70.824 55.2574 71.6179 56.9631 73.027L58.2369 71.485ZM48.64 68.824H30.592V70.824H48.64V68.824ZM29.592 69.824V88.512H31.592V69.824H29.592ZM30.592 55.08H46.592V53.08H30.592V55.08ZM46.592 55.08C50.6204 55.08 53.826 54.2965 56.0403 52.5635C58.3013 50.794 59.368 48.1644 59.368 44.864H57.368C57.368 47.7076 56.472 49.686 54.8077 50.9885C53.0967 52.3275 50.4143 53.08 46.592 53.08V55.08ZM59.368 44.864C59.368 41.5636 58.3013 38.934 56.0403 37.1645C53.826 35.4315 50.6204 34.648 46.592 34.648V36.648C50.4143 36.648 53.0967 37.4005 54.8077 38.7395C56.472 40.042 57.368 42.0204 57.368 44.864H59.368ZM46.592 34.648H30.592V36.648H46.592V34.648ZM29.592 35.648V54.08H31.592V35.648H29.592Z" fill="#00A9B4"/>
</svg>
