<svg width="191" height="53" viewBox="0 0 191 53" fill="none" xmlns="http://www.w3.org/2000/svg">
<path d="M2.6 22V0.879999H14.696C17.3627 0.901332 19.3467 1.38133 20.648 2.32C21.9493 3.23733 22.6 4.63467 22.6 6.512C22.6 7.77067 22.216 8.83733 21.448 9.712C20.68 10.5867 19.4747 11.1413 17.832 11.376V11.408C19.6667 11.6 21.0107 12.144 21.864 13.04C22.7173 13.936 23.144 15.0667 23.144 16.432C23.144 18.288 22.5147 19.6853 21.256 20.624C20.0187 21.5413 18.1093 22 15.528 22H2.6ZM9.736 17.136H13.544C14.2053 17.136 14.696 17.008 15.016 16.752C15.3573 16.4747 15.528 16.08 15.528 15.568C15.528 15.0773 15.3573 14.704 15.016 14.448C14.696 14.192 14.2053 14.064 13.544 14.064H9.736V17.136ZM9.736 9.072H13.064C14.344 9.072 14.984 8.56 14.984 7.536C14.984 6.512 14.344 6 13.064 6H9.736V9.072ZM35.5312 0.559999C37.7713 0.559999 39.6913 0.986666 41.2913 1.84C42.8912 2.69333 44.1179 3.93067 44.9713 5.552C45.8246 7.17333 46.2513 9.136 46.2513 11.44C46.2513 13.744 45.8246 15.7067 44.9713 17.328C44.1179 18.9493 42.8912 20.1867 41.2913 21.04C39.6913 21.8933 37.7713 22.32 35.5312 22.32C33.3126 22.32 31.3926 21.8933 29.7712 21.04C28.1712 20.1867 26.9339 18.9493 26.0592 17.328C25.2059 15.7067 24.7792 13.744 24.7792 11.44C24.7792 9.136 25.2059 7.17333 26.0592 5.552C26.9339 3.93067 28.1712 2.69333 29.7712 1.84C31.3926 0.986666 33.3126 0.559999 35.5312 0.559999ZM35.5312 6.16C34.8059 6.16 34.2086 6.352 33.7393 6.736C33.2913 7.09867 32.9499 7.664 32.7153 8.432C32.5019 9.2 32.3953 10.2027 32.3953 11.44C32.3953 12.656 32.5019 13.6587 32.7153 14.448C32.9499 15.216 33.2913 15.792 33.7393 16.176C34.2086 16.5387 34.8059 16.72 35.5312 16.72C36.2566 16.72 36.8433 16.5387 37.2913 16.176C37.7606 15.792 38.1019 15.216 38.3153 14.448C38.5286 13.6587 38.6353 12.656 38.6353 11.44C38.6353 10.2027 38.5286 9.2 38.3153 8.432C38.1019 7.664 37.7606 7.09867 37.2913 6.736C36.8433 6.352 36.2566 6.16 35.5312 6.16ZM69.7388 0.879999L62.6027 22H53.7387L46.6027 0.879999H54.3787L57.2907 12.432L58.3147 16.56L59.2747 12.496L62.2508 0.879999H69.7388ZM71.4037 22V0.879999H88.9398V6.352H78.8597V8.976H86.9877V14.032H78.8597V16.528H89.3237V22H71.4037ZM99.211 16.528H108.779V22H91.755V0.879999H99.211V16.528ZM118.906 16.528H128.474V22H111.45V0.879999H118.906V16.528ZM11.848 30.56C13.8747 30.56 15.688 30.816 17.288 31.328C18.9093 31.8187 20.3387 32.5653 21.576 33.568L18.568 38.368C17.5653 37.664 16.5093 37.0987 15.4 36.672C14.312 36.2453 13.128 36.032 11.848 36.032C11.2933 36.032 10.8453 36.0747 10.504 36.16C10.184 36.2453 9.94933 36.3627 9.8 36.512C9.672 36.6613 9.608 36.832 9.608 37.024C9.608 37.28 9.8 37.472 10.184 37.6C10.5893 37.728 11.0907 37.8667 11.688 38.016L14.6 38.688C16.7547 39.1787 18.376 39.904 19.464 40.864C20.5733 41.824 21.128 43.1573 21.128 44.864C21.128 46.5707 20.712 47.9787 19.88 49.088C19.048 50.176 17.9173 50.9867 16.488 51.52C15.08 52.0533 13.48 52.32 11.688 52.32C10.344 52.32 9 52.2027 7.656 51.968C6.312 51.712 5.064 51.3493 3.912 50.88C2.76 50.3893 1.768 49.8027 0.936 49.12L3.88 44.224C4.49867 44.7147 5.24533 45.1627 6.12 45.568C6.99467 45.952 7.90133 46.2613 8.84 46.496C9.77867 46.7307 10.6533 46.848 11.464 46.848C11.976 46.848 12.3813 46.8053 12.68 46.72C12.9787 46.6347 13.1813 46.528 13.288 46.4C13.416 46.2507 13.48 46.08 13.48 45.888C13.48 45.5893 13.352 45.3653 13.096 45.216C12.8613 45.0667 12.424 44.9173 11.784 44.768L8.584 44.064C7.45333 43.808 6.376 43.4667 5.352 43.04C4.328 42.6133 3.496 41.9947 2.856 41.184C2.216 40.352 1.896 39.232 1.896 37.824C1.896 36.3733 2.28 35.104 3.048 34.016C3.83733 32.928 4.968 32.0853 6.44 31.488C7.93333 30.8693 9.736 30.56 11.848 30.56ZM33.75 30.56C35.99 30.56 37.91 30.9867 39.51 31.84C41.11 32.6933 42.3367 33.9307 43.19 35.552C44.0433 37.1733 44.47 39.136 44.47 41.44C44.47 43.744 44.0433 45.7067 43.19 47.328C42.3367 48.9493 41.11 50.1867 39.51 51.04C37.91 51.8933 35.99 52.32 33.75 52.32C31.5313 52.32 29.6113 51.8933 27.99 51.04C26.39 50.1867 25.1527 48.9493 24.278 47.328C23.4247 45.7067 22.998 43.744 22.998 41.44C22.998 39.136 23.4247 37.1733 24.278 35.552C25.1527 33.9307 26.39 32.6933 27.99 31.84C29.6113 30.9867 31.5313 30.56 33.75 30.56ZM33.75 36.16C33.0247 36.16 32.4273 36.352 31.958 36.736C31.51 37.0987 31.1687 37.664 30.934 38.432C30.7207 39.2 30.614 40.2027 30.614 41.44C30.614 42.656 30.7207 43.6587 30.934 44.448C31.1687 45.216 31.51 45.792 31.958 46.176C32.4273 46.5387 33.0247 46.72 33.75 46.72C34.4753 46.72 35.062 46.5387 35.51 46.176C35.9793 45.792 36.3207 45.216 36.534 44.448C36.7473 43.6587 36.854 42.656 36.854 41.44C36.854 40.2027 36.7473 39.2 36.534 38.432C36.3207 37.664 35.9793 37.0987 35.51 36.736C35.062 36.352 34.4753 36.16 33.75 36.16ZM54.7585 46.528H64.3265V52H47.3025V30.88H54.7585V46.528ZM86.9975 30.88V42.912C86.9975 46.0693 86.1442 48.4267 84.4375 49.984C82.7522 51.5413 80.2028 52.32 76.7895 52.32C73.3762 52.32 70.8162 51.5413 69.1095 49.984C67.4242 48.4267 66.5815 46.0693 66.5815 42.912V30.88H74.0695V43.488C74.0695 44.5547 74.3042 45.3653 74.7735 45.92C75.2428 46.4533 75.9148 46.72 76.7895 46.72C77.6855 46.72 78.3682 46.4533 78.8375 45.92C79.3068 45.3653 79.5415 44.5547 79.5415 43.488V30.88H86.9975ZM109.811 30.88V36.352H103.219V52H95.7627V36.352H89.1387V30.88H109.811ZM119.812 30.88V52H112.356V30.88H119.812ZM133.412 30.56C135.652 30.56 137.572 30.9867 139.172 31.84C140.772 32.6933 141.999 33.9307 142.852 35.552C143.706 37.1733 144.132 39.136 144.132 41.44C144.132 43.744 143.706 45.7067 142.852 47.328C141.999 48.9493 140.772 50.1867 139.172 51.04C137.572 51.8933 135.652 52.32 133.412 52.32C131.194 52.32 129.274 51.8933 127.652 51.04C126.052 50.1867 124.815 48.9493 123.94 47.328C123.087 45.7067 122.66 43.744 122.66 41.44C122.66 39.136 123.087 37.1733 123.94 35.552C124.815 33.9307 126.052 32.6933 127.652 31.84C129.274 30.9867 131.194 30.56 133.412 30.56ZM133.412 36.16C132.687 36.16 132.09 36.352 131.62 36.736C131.172 37.0987 130.831 37.664 130.596 38.432C130.383 39.2 130.276 40.2027 130.276 41.44C130.276 42.656 130.383 43.6587 130.596 44.448C130.831 45.216 131.172 45.792 131.62 46.176C132.09 46.5387 132.687 46.72 133.412 46.72C134.138 46.72 134.724 46.5387 135.172 46.176C135.642 45.792 135.983 45.216 136.196 44.448C136.41 43.6587 136.516 42.656 136.516 41.44C136.516 40.2027 136.41 39.2 136.196 38.432C135.983 37.664 135.642 37.0987 135.172 36.736C134.724 36.352 134.138 36.16 133.412 36.16ZM167.637 30.88V52H159.573L154.517 42.4L153.365 39.808H153.301L153.429 44.16V52H146.965V30.88H155.029L160.085 40.512L161.237 43.072H161.301L161.173 38.72V30.88H167.637ZM180.408 30.56C182.435 30.56 184.248 30.816 185.848 31.328C187.469 31.8187 188.899 32.5653 190.136 33.568L187.128 38.368C186.125 37.664 185.069 37.0987 183.96 36.672C182.872 36.2453 181.688 36.032 180.408 36.032C179.853 36.032 179.405 36.0747 179.064 36.16C178.744 36.2453 178.509 36.3627 178.36 36.512C178.232 36.6613 178.168 36.832 178.168 37.024C178.168 37.28 178.36 37.472 178.744 37.6C179.149 37.728 179.651 37.8667 180.248 38.016L183.16 38.688C185.315 39.1787 186.936 39.904 188.024 40.864C189.133 41.824 189.688 43.1573 189.688 44.864C189.688 46.5707 189.272 47.9787 188.44 49.088C187.608 50.176 186.477 50.9867 185.048 51.52C183.64 52.0533 182.04 52.32 180.248 52.32C178.904 52.32 177.56 52.2027 176.216 51.968C174.872 51.712 173.624 51.3493 172.472 50.88C171.32 50.3893 170.328 49.8027 169.496 49.12L172.44 44.224C173.059 44.7147 173.805 45.1627 174.68 45.568C175.555 45.952 176.461 46.2613 177.4 46.496C178.339 46.7307 179.213 46.848 180.024 46.848C180.536 46.848 180.941 46.8053 181.24 46.72C181.539 46.6347 181.741 46.528 181.848 46.4C181.976 46.2507 182.04 46.08 182.04 45.888C182.04 45.5893 181.912 45.3653 181.656 45.216C181.421 45.0667 180.984 44.9173 180.344 44.768L177.144 44.064C176.013 43.808 174.936 43.4667 173.912 43.04C172.888 42.6133 172.056 41.9947 171.416 41.184C170.776 40.352 170.456 39.232 170.456 37.824C170.456 36.3733 170.84 35.104 171.608 34.016C172.397 32.928 173.528 32.0853 175 31.488C176.493 30.8693 178.296 30.56 180.408 30.56Z" fill="#010225"/>
</svg>
