<svg width="264" height="23" viewBox="0 0 264 23" fill="none" xmlns="http://www.w3.org/2000/svg">
<path d="M10.968 0.879999C14.2747 0.879999 16.7707 1.79733 18.456 3.632C20.1413 5.46667 20.984 8.06933 20.984 11.44C20.984 14.7893 20.1413 17.392 18.456 19.248C16.7707 21.0827 14.2747 22 10.968 22H0.6V0.879999H10.968ZM9.912 16.688C11.2987 16.688 12.216 16.272 12.664 15.44C13.1333 14.5867 13.368 13.2533 13.368 11.44C13.368 9.62667 13.1333 8.304 12.664 7.472C12.216 6.61867 11.2987 6.192 9.912 6.192H8.056V16.688H9.912ZM43.7505 22H36.1345L35.1745 17.968H29.4785L28.4865 22H21.0625L27.9105 0.879999H36.8705L43.7505 22ZM30.5985 13.328H34.0865L32.3585 6L30.5985 13.328ZM66.037 0.879999V22H57.973L52.917 12.4L51.765 9.808H51.701L51.829 14.16V22H45.365V0.879999H53.429L58.485 10.512L59.637 13.072H59.701L59.573 8.72V0.879999H66.037ZM89.4 15.536C89.016 17.1787 88.3547 18.5013 87.416 19.504C86.4987 20.5067 85.3787 21.232 84.056 21.68C82.7333 22.1067 81.2613 22.32 79.64 22.32C77.4213 22.32 75.5013 21.8933 73.88 21.04C72.28 20.1867 71.0427 18.9493 70.168 17.328C69.3147 15.7067 68.888 13.744 68.888 11.44C68.888 9.136 69.3147 7.17333 70.168 5.552C71.0427 3.93067 72.28 2.69333 73.88 1.84C75.5013 0.986666 77.4213 0.559999 79.64 0.559999C81.1973 0.559999 82.648 0.783999 83.992 1.232C85.336 1.65867 86.4667 2.34133 87.384 3.28C88.3227 4.21867 88.9413 5.44533 89.24 6.96L82.84 9.456C82.6693 8.06933 82.3173 7.17333 81.784 6.768C81.272 6.36267 80.6213 6.16 79.832 6.16C79.1067 6.16 78.488 6.352 77.976 6.736C77.4853 7.09867 77.112 7.67467 76.856 8.464C76.6213 9.232 76.504 10.224 76.504 11.44C76.504 12.6347 76.6107 13.6267 76.824 14.416C77.0587 15.2053 77.432 15.792 77.944 16.176C78.456 16.5387 79.1387 16.72 79.992 16.72C80.76 16.72 81.3893 16.496 81.88 16.048C82.3707 15.5787 82.68 14.8427 82.808 13.84L89.4 15.536ZM100.784 0.559999C102.811 0.559999 104.624 0.815999 106.224 1.328C107.846 1.81867 109.275 2.56533 110.512 3.568L107.504 8.368C106.502 7.664 105.446 7.09867 104.336 6.672C103.248 6.24533 102.064 6.032 100.784 6.032C100.23 6.032 99.7816 6.07467 99.4402 6.16C99.1202 6.24533 98.8856 6.36267 98.7362 6.512C98.6082 6.66133 98.5442 6.832 98.5442 7.024C98.5442 7.28 98.7362 7.472 99.1202 7.6C99.5256 7.728 100.027 7.86667 100.624 8.016L103.536 8.688C105.691 9.17867 107.312 9.904 108.4 10.864C109.51 11.824 110.064 13.1573 110.064 14.864C110.064 16.5707 109.648 17.9787 108.816 19.088C107.984 20.176 106.854 20.9867 105.424 21.52C104.016 22.0533 102.416 22.32 100.624 22.32C99.2802 22.32 97.9362 22.2027 96.5922 21.968C95.2482 21.712 94.0002 21.3493 92.8482 20.88C91.6962 20.3893 90.7042 19.8027 89.8722 19.12L92.8162 14.224C93.4349 14.7147 94.1816 15.1627 95.0562 15.568C95.9309 15.952 96.8376 16.2613 97.7762 16.496C98.7149 16.7307 99.5896 16.848 100.4 16.848C100.912 16.848 101.318 16.8053 101.616 16.72C101.915 16.6347 102.118 16.528 102.224 16.4C102.352 16.2507 102.416 16.08 102.416 15.888C102.416 15.5893 102.288 15.3653 102.032 15.216C101.798 15.0667 101.36 14.9173 100.72 14.768L97.5202 14.064C96.3896 13.808 95.3122 13.4667 94.2882 13.04C93.2642 12.6133 92.4322 11.9947 91.7922 11.184C91.1522 10.352 90.8322 9.232 90.8322 7.824C90.8322 6.37333 91.2162 5.104 91.9842 4.016C92.7736 2.928 93.9042 2.08533 95.3762 1.488C96.8696 0.869333 98.6722 0.559999 100.784 0.559999ZM131.294 0.879999C134.601 0.879999 137.097 1.79733 138.782 3.632C140.468 5.46667 141.31 8.06933 141.31 11.44C141.31 14.7893 140.468 17.392 138.782 19.248C137.097 21.0827 134.601 22 131.294 22H120.926V0.879999H131.294ZM130.238 16.688C131.625 16.688 132.542 16.272 132.99 15.44C133.46 14.5867 133.694 13.2533 133.694 11.44C133.694 9.62667 133.46 8.304 132.99 7.472C132.542 6.61867 131.625 6.192 130.238 6.192H128.382V16.688H130.238ZM144.153 22V0.879999H161.689V6.352H151.609V8.976H159.737V14.032H151.609V16.528H162.073V22H144.153ZM173.752 0.559999C175.778 0.559999 177.592 0.815999 179.192 1.328C180.813 1.81867 182.242 2.56533 183.48 3.568L180.472 8.368C179.469 7.664 178.413 7.09867 177.304 6.672C176.216 6.24533 175.032 6.032 173.752 6.032C173.197 6.032 172.749 6.07467 172.408 6.16C172.088 6.24533 171.853 6.36267 171.704 6.512C171.576 6.66133 171.512 6.832 171.512 7.024C171.512 7.28 171.704 7.472 172.088 7.6C172.493 7.728 172.994 7.86667 173.592 8.016L176.504 8.688C178.658 9.17867 180.28 9.904 181.368 10.864C182.477 11.824 183.032 13.1573 183.032 14.864C183.032 16.5707 182.616 17.9787 181.784 19.088C180.952 20.176 179.821 20.9867 178.392 21.52C176.984 22.0533 175.384 22.32 173.592 22.32C172.248 22.32 170.904 22.2027 169.56 21.968C168.216 21.712 166.968 21.3493 165.816 20.88C164.664 20.3893 163.672 19.8027 162.84 19.12L165.784 14.224C166.402 14.7147 167.149 15.1627 168.024 15.568C168.898 15.952 169.805 16.2613 170.744 16.496C171.682 16.7307 172.557 16.848 173.368 16.848C173.88 16.848 174.285 16.8053 174.584 16.72C174.882 16.6347 175.085 16.528 175.192 16.4C175.32 16.2507 175.384 16.08 175.384 15.888C175.384 15.5893 175.256 15.3653 175 15.216C174.765 15.0667 174.328 14.9173 173.688 14.768L170.488 14.064C169.357 13.808 168.28 13.4667 167.256 13.04C166.232 12.6133 165.4 11.9947 164.76 11.184C164.12 10.352 163.8 9.232 163.8 7.824C163.8 6.37333 164.184 5.104 164.952 4.016C165.741 2.928 166.872 2.08533 168.344 1.488C169.837 0.869333 171.64 0.559999 173.752 0.559999ZM193.03 0.879999V22H185.574V0.879999H193.03ZM205.446 22.32C203.633 22.32 202.001 21.9253 200.55 21.136C199.099 20.3253 197.958 19.12 197.126 17.52C196.294 15.8987 195.878 13.8933 195.878 11.504C195.878 9.2 196.305 7.23733 197.158 5.616C198.033 3.97333 199.291 2.72533 200.934 1.872C202.577 0.997333 204.539 0.559999 206.822 0.559999C209.425 0.559999 211.505 1.01867 213.062 1.936C214.641 2.85333 215.846 4.32533 216.678 6.352L209.734 8.848C209.585 7.84533 209.254 7.152 208.742 6.768C208.251 6.36267 207.633 6.16 206.886 6.16C206.075 6.16 205.414 6.352 204.902 6.736C204.411 7.12 204.049 7.70667 203.814 8.496C203.601 9.264 203.494 10.2453 203.494 11.44C203.494 12.7627 203.633 13.8293 203.91 14.64C204.209 15.4507 204.646 16.0373 205.222 16.4C205.819 16.7413 206.566 16.912 207.462 16.912C207.889 16.912 208.273 16.8693 208.614 16.784C208.977 16.6987 209.286 16.5707 209.542 16.4C209.819 16.208 210.022 15.9733 210.15 15.696C210.299 15.4187 210.374 15.088 210.374 14.704V14.672H206.822V10.096H216.614V22H211.686L211.078 16.336L212.23 17.584C211.867 19.0987 211.11 20.272 209.958 21.104C208.827 21.9147 207.323 22.32 205.446 22.32ZM240.636 0.879999V22H232.572L227.516 12.4L226.364 9.808H226.3L226.428 14.16V22H219.964V0.879999H228.028L233.084 10.512L234.236 13.072H234.3L234.172 8.72V0.879999H240.636ZM253.407 0.559999C255.433 0.559999 257.247 0.815999 258.847 1.328C260.468 1.81867 261.897 2.56533 263.135 3.568L260.127 8.368C259.124 7.664 258.068 7.09867 256.959 6.672C255.871 6.24533 254.687 6.032 253.407 6.032C252.852 6.032 252.404 6.07467 252.063 6.16C251.743 6.24533 251.508 6.36267 251.359 6.512C251.231 6.66133 251.167 6.832 251.167 7.024C251.167 7.28 251.359 7.472 251.743 7.6C252.148 7.728 252.649 7.86667 253.247 8.016L256.159 8.688C258.313 9.17867 259.935 9.904 261.023 10.864C262.132 11.824 262.687 13.1573 262.687 14.864C262.687 16.5707 262.271 17.9787 261.439 19.088C260.607 20.176 259.476 20.9867 258.047 21.52C256.639 22.0533 255.039 22.32 253.247 22.32C251.903 22.32 250.559 22.2027 249.215 21.968C247.871 21.712 246.623 21.3493 245.471 20.88C244.319 20.3893 243.327 19.8027 242.495 19.12L245.439 14.224C246.057 14.7147 246.804 15.1627 247.679 15.568C248.553 15.952 249.46 16.2613 250.399 16.496C251.337 16.7307 252.212 16.848 253.023 16.848C253.535 16.848 253.94 16.8053 254.239 16.72C254.537 16.6347 254.74 16.528 254.847 16.4C254.975 16.2507 255.039 16.08 255.039 15.888C255.039 15.5893 254.911 15.3653 254.655 15.216C254.42 15.0667 253.983 14.9173 253.343 14.768L250.143 14.064C249.012 13.808 247.935 13.4667 246.911 13.04C245.887 12.6133 245.055 11.9947 244.415 11.184C243.775 10.352 243.455 9.232 243.455 7.824C243.455 6.37333 243.839 5.104 244.607 4.016C245.396 2.928 246.527 2.08533 247.999 1.488C249.492 0.869333 251.295 0.559999 253.407 0.559999Z" fill="#010225"/>
</svg>
