<svg width="138" height="181" viewBox="0 0 138 181" fill="none" xmlns="http://www.w3.org/2000/svg">
<path d="M45.184 19.52C58.4107 19.52 68.5227 23.1893 75.52 30.528C82.6027 37.8667 86.144 48.2773 86.144 61.76C86.144 75.2427 82.6027 85.6533 75.52 92.992C68.5227 100.331 58.4107 104 45.184 104H9.344V19.52H45.184ZM43.008 87.36C50.176 87.36 55.3813 85.2267 58.624 80.96C61.952 76.608 63.616 70.208 63.616 61.76C63.616 53.312 61.952 46.9547 58.624 42.688C55.3813 38.336 50.176 36.16 43.008 36.16H31.36V87.36H43.008Z" fill="#FFB800"/>
<path d="M75.52 30.528L74.7963 31.2181L74.8005 31.2224L75.52 30.528ZM75.52 92.992L74.8004 92.2975L74.7963 92.3019L75.52 92.992ZM9.344 104H8.344V105H9.344V104ZM9.344 19.52V18.52H8.344V19.52H9.344ZM58.624 80.96L57.8296 80.3525L57.8278 80.3549L58.624 80.96ZM58.624 42.688L57.8221 43.2855L57.8287 43.2943L57.8355 43.303L58.624 42.688ZM31.36 36.16V35.16H30.36V36.16H31.36ZM31.36 87.36H30.36V88.36H31.36V87.36ZM45.184 20.52C58.2245 20.52 68.0404 24.1327 74.7963 31.2181L76.2437 29.8379C69.0049 22.246 58.5968 18.52 45.184 18.52V20.52ZM74.8005 31.2224C81.6513 38.3209 85.144 48.4504 85.144 61.76H87.144C87.144 48.1042 83.5541 37.4125 76.2395 29.8336L74.8005 31.2224ZM85.144 61.76C85.144 75.0696 81.6513 85.1991 74.8005 92.2976L76.2395 93.6864C83.5541 86.1075 87.144 75.4158 87.144 61.76H85.144ZM74.7963 92.3019C68.0404 99.3873 58.2245 103 45.184 103V105C58.5968 105 69.0049 101.274 76.2437 93.6821L74.7963 92.3019ZM45.184 103H9.344V105H45.184V103ZM10.344 104V19.52H8.344V104H10.344ZM9.344 20.52H45.184V18.52H9.344V20.52ZM43.008 88.36C50.3745 88.36 55.9287 86.1591 59.4202 81.5651L57.8278 80.3549C54.834 84.2942 49.9775 86.36 43.008 86.36V88.36ZM59.4184 81.5674C62.9347 76.9691 64.616 70.3154 64.616 61.76H62.616C62.616 70.1006 60.9693 76.2469 57.8296 80.3525L59.4184 81.5674ZM64.616 61.76C64.616 53.2067 62.9356 46.5897 59.4125 42.073L57.8355 43.303C60.9684 47.3196 62.616 53.4173 62.616 61.76H64.616ZM59.4259 42.0905C55.9371 37.4081 50.3815 35.16 43.008 35.16V37.16C49.9705 37.16 54.8256 39.2638 57.8221 43.2855L59.4259 42.0905ZM43.008 35.16H31.36V37.16H43.008V35.16ZM30.36 36.16V87.36H32.36V36.16H30.36ZM31.36 88.36H43.008V86.36H31.36V88.36Z" fill="#00A9B4"/>
<path d="M91.184 79.52C104.411 79.52 114.523 83.1893 121.52 90.528C128.603 97.8667 132.144 108.277 132.144 121.76C132.144 135.243 128.603 145.653 121.52 152.992C114.523 160.331 104.411 164 91.184 164H55.344V79.52H91.184ZM89.008 147.36C96.176 147.36 101.381 145.227 104.624 140.96C107.952 136.608 109.616 130.208 109.616 121.76C109.616 113.312 107.952 106.955 104.624 102.688C101.381 98.336 96.176 96.16 89.008 96.16H77.36V147.36H89.008Z" fill="#FFB800"/>
<path d="M121.52 90.528L120.796 91.2181L120.8 91.2224L121.52 90.528ZM121.52 152.992L120.8 152.298L120.796 152.302L121.52 152.992ZM55.344 164H54.344V165H55.344V164ZM55.344 79.52V78.52H54.344V79.52H55.344ZM104.624 140.96L103.83 140.353L103.828 140.355L104.624 140.96ZM104.624 102.688L103.822 103.285L103.829 103.294L103.836 103.303L104.624 102.688ZM77.36 96.16V95.16H76.36V96.16H77.36ZM77.36 147.36H76.36V148.36H77.36V147.36ZM91.184 80.52C104.225 80.52 114.04 84.1327 120.796 91.2181L122.244 89.8379C115.005 82.246 104.597 78.52 91.184 78.52V80.52ZM120.8 91.2224C127.651 98.3209 131.144 108.45 131.144 121.76H133.144C133.144 108.104 129.554 97.4125 122.24 89.8336L120.8 91.2224ZM131.144 121.76C131.144 135.07 127.651 145.199 120.8 152.298L122.24 153.686C129.554 146.108 133.144 135.416 133.144 121.76H131.144ZM120.796 152.302C114.04 159.387 104.225 163 91.184 163V165C104.597 165 115.005 161.274 122.244 153.682L120.796 152.302ZM91.184 163H55.344V165H91.184V163ZM56.344 164V79.52H54.344V164H56.344ZM55.344 80.52H91.184V78.52H55.344V80.52ZM89.008 148.36C96.3745 148.36 101.929 146.159 105.42 141.565L103.828 140.355C100.834 144.294 95.9775 146.36 89.008 146.36V148.36ZM105.418 141.567C108.935 136.969 110.616 130.315 110.616 121.76H108.616C108.616 130.101 106.969 136.247 103.83 140.353L105.418 141.567ZM110.616 121.76C110.616 113.207 108.936 106.59 105.413 102.073L103.836 103.303C106.968 107.32 108.616 113.417 108.616 121.76H110.616ZM105.426 102.091C101.937 97.4081 96.3815 95.16 89.008 95.16V97.16C95.9705 97.16 100.826 99.2638 103.822 103.285L105.426 102.091ZM89.008 95.16H77.36V97.16H89.008V95.16ZM76.36 96.16V147.36H78.36V96.16H76.36ZM77.36 148.36H89.008V146.36H77.36V148.36Z" fill="#00A9B4"/>
</svg>
